<svg width="153" height="22" xmlns="http://www.w3.org/2000/svg"><g fill="#3F72AF" fill-rule="evenodd"><text font-family="OpenSans-Bold, Open Sans" font-size="24" font-weight="bold" letter-spacing="1.333" transform="translate(0 -6)"><tspan x="26" y="26">HAPRAMP</tspan></text><path d="M14.24 7.956a2.32 2.32 0 0 1 4.322 1.174v10.55a2.32 2.32 0 0 1-4.64 0v-6.224c-1.449.656-3.06 1.176-4.64 1.21-1.613-.005-3.214-.5-4.641-1.14v6.154a2.32 2.32 0 0 1-4.641 0V9.13a2.32 2.32 0 0 1 4.386-1.058c1.544.923 3.216 1.995 4.895 1.995 1.743 0 3.398-1.174 4.959-2.11zM2.32 4.714C1.04 4.714 0 3.66 0 2.357 0 1.055 1.039 0 2.32 0c1.282 0 2.32 1.055 2.32 2.357 0 1.302-1.038 2.357-2.32 2.357zm13.922 0c-1.281 0-2.32-1.055-2.32-2.357C13.922 1.055 14.96 0 16.242 0c1.282 0 2.32 1.055 2.32 2.357 0 1.302-1.038 2.357-2.32 2.357z"/></g></svg>